<?xml version="1.0" encoding="UTF-8" standalone="no"?>
<svg width="1221px" height="335px" viewBox="0 0 1221 335" version="1.1" xmlns="http://www.w3.org/2000/svg" xmlns:xlink="http://www.w3.org/1999/xlink">
    <!-- Generator: Sketch 50.2 (55047) - http://www.bohemiancoding.com/sketch -->
    <title>Artboard 4</title>
    <desc>Created with Sketch.</desc>
    <defs></defs>
    <g id="Artboard-4" stroke="none" stroke-width="1" fill="none" fill-rule="evenodd">
        <g id="Group" transform="translate(59.000000, 32.000000)">
            <text id="rupa" font-family="Menlo-Regular, Menlo" font-size="144" font-weight="normal" fill="#000000">
                <tspan x="0" y="175">rupa</tspan>
            </text>
            <text id="arupa" font-family="Menlo-Regular, Menlo" font-size="144" font-weight="normal" fill="#000000">
                <tspan x="670" y="175">arupa</tspan>
            </text>
            <path d="M489.705853,172.432075 L465.005817,197.084388 C474.707221,204.117947 486.134701,208.924097 498.534276,210.750314 L498.534276,175.986666 C495.433214,175.132428 492.475693,173.932881 489.705853,172.432075 Z M469.747956,147.285731 L435.069693,147.285731 C436.994735,159.702152 441.859264,171.129783 448.918804,180.81419 L473.387932,156.017675 C471.868957,153.280971 470.641416,150.355917 469.747956,147.285731 Z M473.387932,115.878948 L448.713253,91.0058174 C441.717492,100.713899 436.923267,112.138405 435.069693,124.534276 L469.895177,124.534276 C470.745614,121.496998 471.923484,118.598161 473.387932,115.878948 Z M497.336832,95.5596141 L497.336832,61.0696933 C484.90925,62.9123838 473.47255,67.8130911 463.808372,74.9864222 L488.093273,99.3879322 C490.978323,97.7574023 494.077105,96.463616 497.336832,95.5596141 Z M529.842813,99.3879322 L554.81419,74.8953016 C545.122993,67.8735418 533.698348,63.0212786 521.285731,61.0696933 L521.285731,95.8135857 C524.291362,96.7016859 527.157147,97.9063017 529.842813,99.3879322 Z M549.92483,124.534276 L584.750314,124.534276 C582.89674,112.138405 578.102515,100.713899 571.106755,91.0058174 L546.432075,115.878948 C547.896523,118.598161 549.074393,121.496998 549.92483,124.534276 Z M546.432075,156.017675 L570.901203,180.81419 C577.960744,171.129783 582.825273,159.702152 584.750314,147.285731 L550.072051,147.285731 C549.178591,150.355917 547.951051,153.280971 546.432075,156.017675 Z M521.285731,175.72964 L521.285731,210.750314 C533.227876,208.816955 544.235815,204.059346 553.616745,197.177179 L529.115371,172.432075 C526.645347,173.786359 524.024864,174.896256 521.285731,175.72964 Z M444.243284,60.7301064 C460.259858,46.7720605 480.764614,37.8328632 503.306739,36.3633274 C496.193297,33.6908885 491.131419,26.8258688 491.131419,18.7785843 C491.131419,8.40745856 499.538878,-6.67149332e-15 509.910004,0 C520.281129,6.67149332e-15 528.688588,8.40745856 528.688588,18.7785843 C528.688588,26.8258688 523.62671,33.6908885 516.513269,36.3633289 C539.055393,37.8328632 559.560149,46.7720605 575.576723,60.7301064 C572.505596,53.83326 573.798675,45.464404 579.45596,39.8071184 C586.789454,32.4736251 598.679396,32.4736251 606.012889,39.8071184 C613.346382,47.1406118 613.346382,59.0305537 606.012889,66.364047 C600.368808,72.0081276 592.025801,73.3083513 585.13822,70.264718 C599.055952,86.1445015 608.026258,106.468981 609.642623,128.831642 C612.437392,121.968974 619.174472,117.131419 627.041423,117.131419 C637.412549,117.131419 645.820007,125.538878 645.820007,135.910004 C645.820007,146.281129 637.412549,154.688588 627.041423,154.688588 C619.200771,154.688588 612.482448,149.883323 609.670783,143.057121 C608.156775,165.232099 599.413307,185.421398 585.779194,201.286204 C592.537597,198.595945 600.542792,199.985863 606.012889,205.45596 C613.346382,212.789454 613.346382,224.679396 606.012889,232.012889 C598.679396,239.346382 586.789454,239.346382 579.45596,232.012889 C573.999146,226.556075 572.602719,218.57646 575.266678,211.828451 C559.529408,225.430451 539.505315,234.20672 517.494268,235.857388 C524.087583,238.771646 528.688588,245.369223 528.688588,253.041423 C528.688588,263.412549 520.281129,271.820007 509.910004,271.820007 C499.538878,271.820007 491.131419,263.412549 491.131419,253.041423 C491.131419,245.369223 495.732425,238.771646 502.325739,235.857387 C480.314693,234.20672 460.290599,225.430451 444.553329,211.828451 C447.217288,218.57646 445.820861,226.556075 440.364047,232.012889 C433.030554,239.346382 421.140612,239.346382 413.807118,232.012889 C406.473625,224.679396 406.473625,212.789454 413.807118,205.45596 C419.277215,199.985863 427.28241,198.595945 434.040813,201.286204 C420.4067,185.421398 411.663232,165.232099 410.149224,143.057121 C407.337559,149.883323 400.619237,154.688588 392.778584,154.688588 C382.407459,154.688588 374,146.281129 374,135.910004 C374,125.538878 382.407459,117.131419 392.778584,117.131419 C400.645536,117.131419 407.382616,121.968974 410.177385,128.831644 C411.79375,106.468981 420.764055,86.1445015 434.681787,70.264718 C427.794206,73.3083513 419.451199,72.0081276 413.807118,66.364047 C406.473625,59.0305537 406.473625,47.1406118 413.807118,39.8071184 C421.140612,32.4736251 433.030554,32.4736251 440.364047,39.8071184 C446.021333,45.464404 447.314412,53.83326 444.243284,60.7301064 Z M509.910004,154.470401 C520.160628,154.470401 528.470401,146.160628 528.470401,135.910004 C528.470401,125.659379 520.160628,117.349607 509.910004,117.349607 C499.659379,117.349607 491.349607,125.659379 491.349607,135.910004 C491.349607,146.160628 499.659379,154.470401 509.910004,154.470401 Z" id="Path" fill="#FCD000"></path>
        </g>
    </g>
</svg>